#!OML:ASF E:\inclinewalkrobotboard\Project 1\Capture day 1\Session 1\subject1.ASF
:FULLY-SPECIFIED
:DEGREES
127
root 7.18453 16.5466 35.673 -168.536 0.587448 -182.345
lowerback -5.33249 0.24996 -5.30057
upperback 1.49421 0.659149 1.17293
thorax 4.47826 0.164282 4.26204
lowerneck -5.78806 1.40605 -3.94967
upperneck 33.6919 -3.81583 6.37983
head 12.1951 -2.91976 2.36524
rclavicle -6.16232e-015 1.78906e-014
rhumerus -44.3175 -38.3007 -63.0245
rradius 20.0553
rwrist 24.1071
rhand -12.3674 -36.1894
rfingers 7.12502
rthumb 13.7029 -65.7183
lclavicle -6.16232e-015 1.78906e-014
lhumerus -27.9389 4.01497 87.9425
lradius 20.8303
lwrist -25.3076
lhand -27.9554 -21.7529
lfingers 7.12502
lthumb -1.34279 8.2226
rfemur -10.3857 2.67888 21.1883
rtibia 13.8008
rfoot -18.9232 0.161252
rtoes -6.45087
lfemur -22.2768 -8.40362 -21.5603
ltibia 37.6624
lfoot -19.7103 7.53641
ltoes -63.6983
128
root 7.20681 16.5329 35.6359 -168.637 0.188188 -182.081
lowerback -4.82872 0.280879 -4.85743
upperback 1.55605 0.631829 1.37318
thorax 4.2608 0.162953 4.21155
lowerneck -5.59626 1.34853 -4.17472
upperneck 33.3373 -3.70997 6.30125
head 12.0012 -2.88218 2.39088
rclavicle -6.85807e-015 -2.78299e-015
rhumerus -43.632 -37.2104 -63.6992
rradius 20.2524
rwrist 23.3977
rhand -12.1052 -36.6188
rfingers 7.12502
rthumb 13.9557 -66.1304
lclavicle -6.85807e-015 -2.78299e-015
lhumerus -27.8786 4.46021 88.0077
lradius 21.0014
lwrist -24.8687
lhand -27.3179 -21.717
lfingers 7.12502
lthumb -0.727156 8.2615
rfemur -10.09 2.6044 21.6495
rtibia 13.8625
rfoot -19.3314 0.0601723
rtoes -5.55997
lfemur -25.2781 -8.13979 -21.3629
ltibia 42.6434
lfoot -19.3679 8.1506
ltoes -63.8623
129
root 7.22849 16.5257 35.5877 -168.917 0.153547 -181.802
lowerback -4.26808 0.508673 -4.43969
upperback 1.70818 0.875203 1.5166
thorax 4.0773 0.292846 4.13636
lowerneck -5.60019 1.26332 -4.22653
upperneck 33.2621 -3.72285 6.15918
head 11.9702 -2.89176 2.34712
rclavicle 3.97569e-015 5.1684e-015
rhumerus -42.9883 -36.223 -64.3583
rradius 20.4389
rwrist 22.7199
rhand -11.9019 -37.2082
rfingers 7.12502
rthumb 14.1515 -66.7063
lclavicle 3.97569e-015 5.1684e-015
lhumerus -27.7962 4.60073 88.1486
lradius 21.0233
lwrist -24.7011
lhand -27.3639 -21.6773
lfingers 7.12502
lthumb -0.771602 8.30107
rfemur -9.5435 2.59731 22.1
rtibia 13.8208
rfoot -19.6022 0.206171
rtoes -4.64864
lfemur -27.8687 -7.4831 -21.2344
ltibia 46.7592
lfoot -20.6012 8.0312
ltoes -64.4266
130
root 7.25006 16.5201 35.541 -169.067 0.16396 -181.734
lowerback -3.69716 0.783496 -4.21172
upperback 1.77615 1.20208 1.52868
thorax 3.79376 0.466036 4.03186
lowerneck -5.70366 1.17273 -4.04738
upperneck 33.334 -3.81843 6.00657
head 12.0239 -2.91676 2.2479
rclavicle -1.09332e-015 -5.96354e-015
rhumerus -42.5372 -35.8716 -64.6478
rradius 20.3576
rwrist 22.7423
rhand -12.1578 -37.3897
rfingers 7.12502
rthumb 13.9049 -66.9048
lclavicle -1.09332e-015 -5.96354e-015
lhumerus -27.7854 4.65286 88.2029
lradius 20.9958
lwrist -24.745
lhand -27.4491 -21.4239
lfingers 7.12502
lthumb -0.853847 8.5541
rfemur -9.15465 2.53961 22.2743
rtibia 13.7956
rfoot -19.7735 0.266779
rtoes -4.58168
lfemur -30.5155 -6.81862 -21.3411
ltibia 50.1179
lfoot -21.3826 7.31563
ltoes -63.7313
131
root 7.26932 16.5193 35.4777 -169.228 0.478665 -181.749
lowerback -3.23946 1.05597 -4.15129
upperback 1.8701 1.5771 1.53863
thorax 3.59668 0.671306 4.022
lowerneck -5.69134 1.13106 -3.97714
upperneck 33.2987 -3.82695 5.91274
head 12.005 -2.91042 2.20082
rclavicle 1.09332e-015 -2.38542e-015
rhumerus -41.9346 -35.8171 -64.7286
rradius 19.9906
rwrist 23.4651
rhand -12.5261 -37.2813
rfingers 7.12502
rthumb 13.55 -66.8205
lclavicle 1.09332e-015 -2.38542e-015
lhumerus -27.9975 4.86216 88.2143
lradius 21.1796
lwrist -24.8217
lhand -27.5611 -20.9541
lfingers 7.12502
lthumb -0.962048 9.02347
rfemur -8.67331 2.56362 22.3267
rtibia 13.7009
rfoot -19.9123 0.512478
rtoes -4.9927
lfemur -32.8462 -6.14034 -21.48
ltibia 51.6654
lfoot -21.4862 7.45749
ltoes -63.5881
132
root 7.28759 16.521 35.4098 -169.236 0.613409 -181.776
lowerback -2.94947 1.20181 -4.10098
upperback 1.94702 1.76185 1.58
thorax 3.4943 0.767238 4.04004
lowerneck -5.65169 1.15061 -4.06505
upperneck 33.2549 -3.74303 5.88453
head 11.9734 -2.87759 2.2176
rclavicle -1.88845e-015 -1.11319e-014
rhumerus -41.1172 -35.8982 -64.7911
rradius 19.4962
rwrist 24.5872
rhand -12.7055 -37.4526
rfingers 7.12502
rthumb 13.3771 -67.0032
lclavicle -1.88845e-015 -1.11319e-014
lhumerus -28.3125 5.1535 88.1753
lradius 21.4797
lwrist -24.691
lhand -27.6111 -20.3232
lfingers 7.12502
lthumb -1.01027 9.65412
rfemur -8.27565 2.52863 22.3729
rtibia 13.4857
rfoot -20.0414 0.57497
rtoes -5.6295
lfemur -35.3796 -5.54132 -21.7046
ltibia 53.3009
lfoot -22.375 7.4919
ltoes -63.4286
133
root 7.30478 16.5232 35.3372 -169.225 0.605471 -181.889
lowerback -2.68295 1.34433 -4.07312
upperback 2.02097 1.94571 1.54352
thorax 3.40412 0.862443 3.98896
lowerneck -5.55736 1.14798 -4.11427
upperneck 33.1744 -3.74318 5.98525
head 11.9232 -2.86441 2.26665
rclavicle -1.33186e-014 -3.89618e-014
rhumerus -40.3973 -36.2184 -64.8457
rradius 19.073
rwrist 25.853
rhand -12.8258 -37.4613
rfingers 7.12502
rthumb 13.2611 -67.0195
lclavicle -1.33186e-014 -3.89618e-014
lhumerus -28.5702 5.3961 88.0436
lradius 21.5138
lwrist -24.5668
lhand -27.6154 -19.8081
lfingers 7.12502
lthumb -1.01442 10.1693
rfemur -7.85278 2.46778 22.3277
rtibia 13.2284
rfoot -20.1375 0.435557
rtoes -6.92602
lfemur -37.8704 -5.24848 -21.9697
ltibia 54.2467
lfoot -22.7856 8.59019
ltoes -64.3686
134
root 7.32205 16.5248 35.2624 -169.233 0.598479 -182.03
lowerback -2.33535 1.49341 -4.08402
upperback 2.08357 2.13735 1.48433
thorax 3.25561 0.962676 3.93212
lowerneck -5.32726 1.10626 -4.15591
upperneck 32.9728 -3.77884 6.0595
head 11.7977 -2.86891 2.30035
rclavicle 2.42517e-014 2.70347e-014
rhumerus -39.6401 -36.4184 -65.1083
rradius 18.8457
rwrist 26.8619
rhand -12.8129 -37.272
rfingers 7.12502
rthumb 13.2735 -66.8294
lclavicle 2.42517e-014 2.70347e-014
lhumerus -28.9113 5.50102 87.9008
lradius 21.5221
lwrist -24.2777
lhand -27.5624 -19.9458
lfingers 7.12502
lthumb -0.963282 10.0318
rfemur -7.44686 2.44372 22.2381
rtibia 13.0535
rfoot -20.2319 0.518797
rtoes -7.25176
lfemur -40.2993 -5.21633 -22.1425
ltibia 54.3917
lfoot -23.2472 8.99481
ltoes -64.3428
135
root 7.33913 16.5257 35.18 -169.297 0.638992 -182.047
lowerback -1.94587 1.63636 -3.96208
upperback 2.17206 2.3164 1.42876
thorax 3.1165 1.05984 3.80118
lowerneck -5.41448 1.10864 -3.92593
upperneck 32.9831 -3.71946 5.8732
head 11.8102 -2.821 2.1974
rclavicle 1.23246e-014 0
rhumerus -38.7807 -36.3889 -65.7232
rradius 18.933
rwrist 27.4573
rhand -12.492 -37.5279
rfingers 7.12502
rthumb 13.5829 -67.0648
lclavicle 1.23246e-014 0
lhumerus -29.3529 5.189 87.7814
lradius 21.6413
lwrist -23.6767
lhand -27.4625 -19.2831
lfingers 7.12502
lthumb -0.866805 10.6949
rfemur -6.94155 2.39459 22.2834
rtibia 12.8712
rfoot -20.3738 0.745067
rtoes -6.37696
lfemur -42.6131 -5.30666 -22.0801
ltibia 54.1219
lfoot -23.7883 9.22511
ltoes -64.4188
136
root 7.35508 16.5235 35.0866 -169.523 0.769561 -181.967
lowerback -1.42963 1.83766 -3.7065
upperback 2.30447 2.56996 1.34525
thorax 2.95236 1.1988 3.5632
lowerneck -5.75441 1.14118 -3.51213
upperneck 33.1799 -3.66227 5.67159
head 11.9496 -2.75142 2.05482
rclavicle -5.1684e-015 -3.18055e-015
rhumerus -37.866 -35.741 -66.8993
rradius 19.4398
rwrist 26.957
rhand -12.1075 -38.1293
rfingers 7.12502
rthumb 13.9534 -67.6411
lclavicle -5.1684e-015 -3.18055e-015
lhumerus -29.7212 4.78554 87.5951
lradius 21.5293
lwrist -23.3339
lhand -27.3696 -17.5981
lfingers 7.12502
lthumb -0.777078 12.3802
rfemur -6.15891 2.34789 22.4415
rtibia 12.5771
rfoot -20.4929 0.871745
rtoes -6.10761
lfemur -44.5765 -5.35302 -21.8534
ltibia 53.3749
lfoot -24.1013 9.10104
ltoes -64.3142
137
root 7.36717 16.5185 34.9898 -169.743 0.990693 -181.955
lowerback -0.85637 1.99353 -3.55553
upperback 2.41446 2.76534 1.29926
thorax 2.7346 1.30769 3.41546
lowerneck -5.62511 1.15036 -3.59832
upperneck 33.0467 -3.6349 5.77525
head 11.8692 -2.73167 2.11426
rclavicle 2.98177e-015 3.97569e-015
rhumerus -36.6691 -33.8807 -68.7174
rradius 20.1911
rwrist 24.6745
rhand -11.9375 -38.5129
rfingers 7.12502
rthumb 14.1172 -68.0133
lclavicle 2.98177e-015 3.97569e-015
lhumerus -30.1132 4.91507 87.3015
lradius 21.2645
lwrist -23.6813
lhand -27.3628 -17.6607
lfingers 7.12502
lthumb -0.770478 12.3177
rfemur -5.4284 2.30001 22.5008
rtibia 12.3342
rfoot -20.5964 0.817313
rtoes -7.60165
lfemur -46.466 -5.45619 -21.6113
ltibia 52.3505
lfoot -24.1473 8.89079
ltoes -64.2479
138
root 7.37742 16.5121 34.8899 -169.897 1.25027 -182.112
lowerback -0.371798 2.08037 -3.6648
upperback 2.54824 2.87849 1.27274
thorax 2.58714 1.3677 3.43446
lowerneck -5.44217 1.17971 -3.81403
upperneck 32.8252 -3.51736 5.82966
head 11.7364 -2.68933 2.18854
rclavicle 3.18055e-015 -1.59028e-015
rhumerus -35.2369 -31.592 -70.7334
rradius 21.1219
rwrist 21.9409
rhand -11.491 -39.1742
rfingers 7.12502
rthumb 14.5475 -68.6441
lclavicle 3.18055e-015 -1.59028e-015
lhumerus -30.5256 5.45017 86.9099
lradius 20.9924
lwrist -24.6383
lhand -27.3321 -19.1718
lfingers 7.12502
lthumb -0.740864 10.8067
rfemur -4.81517 2.31193 22.3605
rtibia 12.1608
rfoot -20.7904 0.440722
rtoes -10.514
lfemur -48.3629 -5.75818 -21.4111
ltibia 51.2215
lfoot -24.2165 8.36853
ltoes -64.1795
139
root 7.38525 16.502 34.7775 -170.017 1.67177 -182.29
lowerback -0.0845459 2.2372 -3.77581
upperback 2.7653 3.09649 1.18522
thorax 2.631 1.47592 3.40326
lowerneck -5.8345 1.23781 -3.59749
upperneck 32.9395 -3.30926 5.51116
head 11.8432 -2.57955 2.05547
rclavicle 4.23411e-014 3.18055e-014
rhumerus -33.7695 -29.6785 -72.627
rradius 22.1197
rwrist 19.7122
rhand -11.115 -39.6891
rfingers 7.12502
rthumb 14.9097 -69.1325
lclavicle 4.23411e-014 3.18055e-014
lhumerus -30.6894 6.39669 86.295
lradius 20.4292
lwrist -26.1551
lhand -27.2392 -20.5079
lfingers 7.12502
lthumb -0.651105 9.47082
rfemur -4.2024 2.27321 22.1459
rtibia 11.9824
rfoot -20.9691 0.331788
rtoes -12.8214
lfemur -50.1066 -5.95117 -21.1701
ltibia 49.8302
lfoot -24.0728 7.79066
ltoes -64.2818
140
root 7.39306 16.4889 34.6529 -170.024 2.22417 -182.311
lowerback 0.0941992 2.49445 -3.70673
upperback 2.90418 3.4455 1.04351
thorax 2.65665 1.65428 3.21872
lowerneck -6.27197 1.26113 -3.21613
upperneck 33.1566 -3.20768 5.17035
head 12.0083 -2.50658 1.8716
rclavicle -2.08724e-014 -7.95139e-016
rhumerus -32.6116 -27.9704 -74.3333
rradius 23.1121
rwrist 17.3759
rhand -11.1973 -39.399
rfingers 7.12502
rthumb 14.8304 -68.8483
lclavicle -2.08724e-014 -7.95139e-016
lhumerus -30.9015 7.31019 85.519
lradius 19.7781
lwrist -27.7159
lhand -27.4096 -21.8647
lfingers 7.12502
lthumb -0.81574 8.11349
rfemur -3.71417 2.25971 22.0809
rtibia 11.9016
rfoot -21.1923 0.44848
rtoes -14.3774
lfemur -51.8038 -5.90823 -20.6905
ltibia 48.302
lfoot -23.7801 7.35756
ltoes -64.2105
